<?xml version="1.0" encoding="UTF-8" standalone="no"?> <svg xmlns="http://www.w3.org/2000/svg" xmlns:xlink="http://www.w3.org/1999/xlink" width="203px" height="95px" viewBox="0 0 203 95"> <!-- Generator: Sketch 49.3 (51167) - http://www.bohemiancoding.com/sketch --> <title>logo</title> <desc>Created with Sketch.</desc> <defs></defs> <g id="Symbols" stroke="none" stroke-width="1" fill="none" fill-rule="evenodd"> <g id="Header" transform="translate(0.000000, -32.000000)"> <g id="logotype"> <g transform="translate(0.383049, 0.937500)"> <g id="logo" transform="translate(0.000000, 31.000000)"> <path d="M56.4858349,15.1910042 C53.5828677,15.1910042 48.3624882,15.1910042 40.8246964,15.1910042 C29.5180087,15.1910042 18.0105062,20.3273718 18.0105062,35.4076325 C18.0105062,50.4878932 29.4967408,56.2594592 40.8246964,56.2594592 C48.3766668,56.2594592 68.1448967,56.2594592 100.129386,56.2594592 C106.3548,55.5166919 109.467507,52.9475919 109.467507,48.5521593 C109.467507,44.1567266 106.3548,41.6829878 100.129386,41.1309429 L80.6607147,41.1309429 L80.6607147,50.2157393 L62.253118,50.2157393 L62.253118,0.202399763 C94.2319255,0.3105158 124.170012,0.364573818 152.067378,0.364573818 C193.913427,0.364573818 192.175701,49.8991343 192.175701,55.2115341 C194.190275,55.2115341 197.401832,55.2115341 201.810373,55.2115341 L199.259647,71.8094545 L132.579283,71.6281809 L132.579283,22.161254 L149.888779,22.161254 L149.888779,55.1453083 C160.49833,55.1894588 168.000822,55.2115341 172.396254,55.2115341 C172.396254,49.4425287 171.493763,16.4105578 152.067378,16.4105578 C139.116455,16.4105578 129.324675,16.4105578 122.69204,16.4105578 C122.875183,19.1577032 122.417325,21.9964201 121.318467,24.9267086 C120.219609,27.856997 117.930321,30.2378564 114.450603,32.0692867 C123.214632,35.2408278 127.596646,40.7351187 127.596646,48.5521593 C127.596646,67.9851988 108.292244,72.1580211 98.5193338,72.0119019 C88.7464233,71.8657827 61.3509735,71.6281808 40.8246964,71.6281808 C20.2984193,71.6281808 0.0267982892,62.2309923 0.0267982892,34.9540482 C0.0267982892,7.67710407 23.9784308,0.235187149 40.8246964,0.235187149 C52.0555401,0.235187149 57.2759196,0.278316038 56.4858349,0.364573818 L56.4858349,15.1910042 Z M80.6607147,15.3116996 L80.6607147,27.673854 L95.4953,27.673854 C101.172734,27.307568 104.011451,25.2014231 104.011451,21.3554195 C104.011451,15.5864141 97.1435872,15.3116996 95.4953,15.3116996 C94.3964418,15.3116996 89.45158,15.3116996 80.6607147,15.3116996 Z" id="Combined-Shape" fill="#D97762"></path> <path d="M11.2326146,89.8174607 C11.1466767,90.7276215 10.8107425,91.4375754 10.2248021,91.9473435 C9.63886167,92.4571117 8.85957259,92.711992 7.88691148,92.711992 C7.20722058,92.711992 6.60859375,92.5508608 6.09101304,92.2285935 C5.57343233,91.9063263 5.17402226,91.4483231 4.89277085,90.8545701 C4.61151945,90.2608171 4.46503654,89.5713709 4.45331773,88.7862107 L4.45331773,87.9893357 C4.45331773,87.1846442 4.59589443,86.4756669 4.8810521,85.8623826 C5.16620978,85.2490983 5.57538538,84.7764468 6.10859117,84.4444138 C6.64179696,84.1123809 7.25800173,83.946367 7.95722398,83.946367 C8.89863494,83.946367 9.65643986,84.2022238 10.2306615,84.7139451 C10.8048831,85.2256664 11.1388641,85.9483154 11.2326146,86.8819138 L9.7560521,86.8819138 C9.68573925,86.2686295 9.5070301,85.8262511 9.21991929,85.5547654 C8.93280848,85.2832797 8.51191425,85.1475388 7.95722398,85.1475388 C7.31268951,85.1475388 6.81757727,85.3828881 6.47187242,85.8535935 C6.12616756,86.324299 5.94941152,87.0147218 5.94159898,87.9248826 L5.94159898,88.680742 C5.94159898,89.6026216 6.10663639,90.3057395 6.43671617,90.790117 C6.76679594,91.2744944 7.25018955,91.5166795 7.88691148,91.5166795 C8.46894564,91.5166795 8.90644126,91.3858214 9.19941148,91.1241013 C9.49238169,90.8623813 9.67792671,90.4268388 9.7560521,89.8174607 L11.2326146,89.8174607 Z M20.1577424,92.5948045 L18.6811799,92.5948045 L18.6811799,85.258867 L14.9253205,85.258867 L14.9253205,92.5948045 L13.448758,92.5948045 L13.448758,84.0635545 L20.1577424,84.0635545 L20.1577424,92.5948045 Z M29.6043546,88.5518357 C29.6043546,89.3877774 29.4598248,90.1211685 29.1707608,90.752031 C28.8816969,91.3828936 28.4686151,91.8672637 27.931503,92.205156 C27.394391,92.5430483 26.7762331,92.711992 26.0770108,92.711992 C25.3856011,92.711992 24.7693964,92.5430483 24.228378,92.205156 C23.6873597,91.8672637 23.2693951,91.3858232 22.9744718,90.7608201 C22.6795484,90.135817 22.5301359,89.415121 22.5262296,88.5987107 L22.5262296,88.118242 C22.5262296,87.2862066 22.6736891,86.5518389 22.9686124,85.915117 C23.2635357,85.278395 23.6795472,84.7910952 24.2166593,84.4532029 C24.7537713,84.1153106 25.3699761,83.946367 26.0652921,83.946367 C26.7606081,83.946367 27.3768128,84.1133575 27.9139249,84.4473435 C28.451037,84.7813296 28.8660719,85.2617935 29.1590421,85.8887498 C29.4520123,86.515706 29.6004483,87.2451909 29.6043546,88.0772263 L29.6043546,88.5518357 Z M28.1219327,88.1065232 C28.1219327,87.161206 27.9432236,86.4366039 27.5857999,85.9326951 C27.2283762,85.4287863 26.7215454,85.1768357 26.0652921,85.1768357 C25.4246639,85.1768357 24.9236923,85.4278098 24.5623624,85.9297654 C24.2010325,86.431721 24.016464,87.1416749 24.0086515,88.0596482 L24.0086515,88.5518357 C24.0086515,89.4893404 24.1912668,90.2139425 24.556503,90.7256638 C24.9217392,91.2373852 25.4285701,91.493242 26.0770108,91.493242 C26.7332641,91.493242 27.2381419,91.2432445 27.5916593,90.743242 C27.9451767,90.2432395 28.1219327,89.512778 28.1219327,88.5518357 L28.1219327,88.1065232 Z M34.4572168,88.9385545 L33.4494043,88.9385545 L33.4494043,92.5948045 L31.9728418,92.5948045 L31.9728418,84.0635545 L33.4494043,84.0635545 L33.4494043,87.649492 L34.2638574,87.649492 L36.7716699,84.0635545 L38.5880761,84.0635545 L35.6583886,88.1475388 L38.8458886,92.5948045 L37.0646386,92.5948045 L34.4572168,88.9385545 Z M47.1440633,88.5518357 C47.1440633,89.3877774 46.9995335,90.1211685 46.7104696,90.752031 C46.4214056,91.3828936 46.0083238,91.8672637 45.4712118,92.205156 C44.9340997,92.5430483 44.3159418,92.711992 43.6167196,92.711992 C42.9253099,92.711992 42.3091051,92.5430483 41.7680868,92.205156 C41.2270684,91.8672637 40.8091039,91.3858232 40.5141805,90.7608201 C40.2192572,90.135817 40.0698446,89.415121 40.0659383,88.5987107 L40.0659383,88.118242 C40.0659383,87.2862066 40.2133978,86.5518389 40.5083211,85.915117 C40.8032445,85.278395 41.2192559,84.7910952 41.756368,84.4532029 C42.2934801,84.1153106 42.9096848,83.946367 43.6050008,83.946367 C44.3003168,83.946367 44.9165216,84.1133575 45.4536336,84.4473435 C45.9907457,84.7813296 46.4057806,85.2617935 46.6987508,85.8887498 C46.991721,86.515706 47.1401571,87.2451909 47.1440633,88.0772263 L47.1440633,88.5518357 Z M45.6616414,88.1065232 C45.6616414,87.161206 45.4829323,86.4366039 45.1255086,85.9326951 C44.768085,85.4287863 44.2612541,85.1768357 43.6050008,85.1768357 C42.9643726,85.1768357 42.4634011,85.4278098 42.1020711,85.9297654 C41.7407412,86.431721 41.5561727,87.1416749 41.5483602,88.0596482 L41.5483602,88.5518357 C41.5483602,89.4893404 41.7309756,90.2139425 42.0962118,90.7256638 C42.461448,91.2373852 42.9682788,91.493242 43.6167196,91.493242 C44.2729729,91.493242 44.7778506,91.2432445 45.131368,90.743242 C45.4848854,90.2432395 45.6616414,89.512778 45.6616414,88.5518357 L45.6616414,88.1065232 Z M54.6980974,84.0635545 L56.1805193,84.0635545 L56.1805193,92.5948045 L54.6980974,92.5948045 L54.6980974,86.5186326 L50.9539568,92.5948045 L49.4715349,92.5948045 L49.4715349,84.0635545 L50.9539568,84.0635545 L50.9539568,90.1455857 L54.6980974,84.0635545 Z M54.7449724,81.8897263 C54.7449724,82.3819163 54.5730991,82.7803498 54.2293474,83.0850388 C53.8855957,83.3897279 53.4266159,83.5420701 52.8523943,83.5420701 C52.2781726,83.5420701 51.8191928,83.3897279 51.4754411,83.0850388 C51.1316894,82.7803498 50.9598161,82.3819163 50.9598161,81.8897263 L52.0262224,81.8897263 C52.0262224,82.1475401 52.0994638,82.3477334 52.2459489,82.4903123 C52.392434,82.6328911 52.5945805,82.7041795 52.8523943,82.7041795 C53.110208,82.7041795 53.3113779,82.6328911 53.4559099,82.4903123 C53.6004418,82.3477334 53.6727068,82.1475401 53.6727068,81.8897263 L54.7449724,81.8897263 Z M65.3165846,89.8174607 C65.2306466,90.7276215 64.8947125,91.4375754 64.3087721,91.9473435 C63.7228316,92.4571117 62.9435425,92.711992 61.9708814,92.711992 C61.2911905,92.711992 60.6925637,92.5508608 60.174983,92.2285935 C59.6574023,91.9063263 59.2579922,91.4483231 58.9767408,90.8545701 C58.6954894,90.2608171 58.5490065,89.5713709 58.5372877,88.7862107 L58.5372877,87.9893357 C58.5372877,87.1846442 58.6798644,86.4756669 58.9650221,85.8623826 C59.2501797,85.2490983 59.6593553,84.7764468 60.1925611,84.4444138 C60.7257669,84.1123809 61.3419717,83.946367 62.0411939,83.946367 C62.9826049,83.946367 63.7404098,84.2022238 64.3146314,84.7139451 C64.8888531,85.2256664 65.2228341,85.9483154 65.3165846,86.8819138 L63.8400221,86.8819138 C63.7697092,86.2686295 63.5910001,85.8262511 63.3038892,85.5547654 C63.0167784,85.2832797 62.5958842,85.1475388 62.0411939,85.1475388 C61.3966595,85.1475388 60.9015472,85.3828881 60.5558424,85.8535935 C60.2101375,86.324299 60.0333815,87.0147218 60.0255689,87.9248826 L60.0255689,88.680742 C60.0255689,89.6026216 60.1906063,90.3057395 60.5206861,90.790117 C60.8507659,91.2744944 61.3341595,91.5166795 61.9708814,91.5166795 C62.5529156,91.5166795 62.9904112,91.3858214 63.2833814,91.1241013 C63.5763516,90.8623813 63.7618967,90.4268388 63.8400221,89.8174607 L65.3165846,89.8174607 Z M73.485853,85.258867 L70.8256967,85.258867 L70.8256967,92.5948045 L69.3549936,92.5948045 L69.3549936,85.258867 L66.7182749,85.258867 L66.7182749,84.0635545 L73.485853,84.0635545 L73.485853,85.258867 Z M75.4559027,92.5948045 L75.4559027,84.0635545 L78.3797308,84.0635545 C79.3445794,84.0635545 80.078947,84.2569119 80.5828558,84.6436326 C81.0867646,85.0303533 81.3387152,85.6065194 81.3387152,86.3721482 C81.3387152,86.7627752 81.2332475,87.1143342 81.0223089,87.4268357 C80.8113704,87.7393373 80.5027797,87.9815224 80.0965277,88.1533982 C80.5574675,88.2783988 80.9139092,88.5137481 81.1658636,88.8594529 C81.417818,89.2051578 81.5437933,89.6201927 81.5437933,90.1045701 C81.5437933,90.9053553 81.2869599,91.5205836 80.7732855,91.9502732 C80.259611,92.3799629 79.5242668,92.5948045 78.5672308,92.5948045 L75.4559027,92.5948045 Z M76.9383245,88.7451951 L76.9383245,91.4112107 L78.5848089,91.4112107 C79.049655,91.4112107 79.4129326,91.2959775 79.6746527,91.0655076 C79.9363727,90.8350377 80.0672308,90.5147284 80.0672308,90.1045701 C80.0672308,89.2178469 79.6141103,88.7647264 78.7078558,88.7451951 L76.9383245,88.7451951 Z M76.9383245,87.6553513 L78.3914495,87.6553513 C78.8523893,87.6553513 79.2127373,87.5508602 79.4725042,87.3418748 C79.7322711,87.1328894 79.8621527,86.8369939 79.8621527,86.4541795 C79.8621527,86.0323024 79.7420367,85.7276179 79.5018011,85.540117 C79.2615655,85.352616 78.8875458,85.258867 78.3797308,85.258867 L76.9383245,85.258867 L76.9383245,87.6553513 Z M89.1036867,84.0635545 L90.5861086,84.0635545 L90.5861086,92.5948045 L89.1036867,92.5948045 L89.1036867,86.5186326 L85.3595461,92.5948045 L83.8771242,92.5948045 L83.8771242,84.0635545 L85.3595461,84.0635545 L85.3595461,90.1455857 L89.1036867,84.0635545 Z M98.1987364,88.7862107 L94.6948301,88.7862107 L94.6948301,91.4112107 L98.7905333,91.4112107 L98.7905333,92.5948045 L93.2124083,92.5948045 L93.2124083,84.0635545 L98.7495176,84.0635545 L98.7495176,85.258867 L94.6948301,85.258867 L94.6948301,87.6143357 L98.1987364,87.6143357 L98.1987364,88.7862107 Z M104.687664,92.5948045 L104.687664,84.0635545 L107.611492,84.0635545 C108.576341,84.0635545 109.310708,84.2569119 109.814617,84.6436326 C110.318526,85.0303533 110.570476,85.6065194 110.570476,86.3721482 C110.570476,86.7627752 110.465009,87.1143342 110.25407,87.4268357 C110.043132,87.7393373 109.734541,87.9815224 109.328289,88.1533982 C109.789229,88.2783988 110.14567,88.5137481 110.397625,88.8594529 C110.649579,89.2051578 110.775555,89.6201927 110.775555,90.1045701 C110.775555,90.9053553 110.518721,91.5205836 110.005047,91.9502732 C109.491372,92.3799629 108.756028,92.5948045 107.798992,92.5948045 L104.687664,92.5948045 Z M106.170086,88.7451951 L106.170086,91.4112107 L107.81657,91.4112107 C108.281416,91.4112107 108.644694,91.2959775 108.906414,91.0655076 C109.168134,90.8350377 109.298992,90.5147284 109.298992,90.1045701 C109.298992,89.2178469 108.845872,88.7647264 107.939617,88.7451951 L106.170086,88.7451951 Z M106.170086,87.6553513 L107.623211,87.6553513 C108.084151,87.6553513 108.444499,87.5508602 108.704265,87.3418748 C108.964032,87.1328894 109.093914,86.8369939 109.093914,86.4541795 C109.093914,86.0323024 108.973798,85.7276179 108.733562,85.540117 C108.493327,85.352616 108.119307,85.258867 107.611492,85.258867 L106.170086,85.258867 L106.170086,87.6553513 Z M117.884276,90.6084763 L114.579589,90.6084763 L113.888182,92.5948045 L112.347167,92.5948045 L115.569823,84.0635545 L116.899901,84.0635545 L120.128417,92.5948045 L118.581542,92.5948045 L117.884276,90.6084763 Z M114.995604,89.4131638 L117.46826,89.4131638 L116.231932,85.8741013 L114.995604,89.4131638 Z M123.457841,84.0635545 L123.457841,91.4112107 L126.059404,91.4112107 L126.059404,84.0635545 L127.535966,84.0635545 L127.535966,91.4112107 L130.119951,91.4112107 L130.119951,84.0635545 L131.596513,84.0635545 L131.596513,92.5948045 L121.96956,92.5948045 L121.96956,84.0635545 L123.457841,84.0635545 Z M139.191563,88.7862107 L135.687657,88.7862107 L135.687657,91.4112107 L139.78336,91.4112107 L139.78336,92.5948045 L134.205235,92.5948045 L134.205235,84.0635545 L139.742344,84.0635545 L139.742344,85.258867 L135.687657,85.258867 L135.687657,87.6143357 L139.191563,87.6143357 L139.191563,88.7862107 Z M147.296378,85.258867 L143.358878,85.258867 L143.358878,92.5948045 L141.882316,92.5948045 L141.882316,84.0635545 L147.296378,84.0635545 L147.296378,85.258867 Z M155.793772,88.5518357 C155.793772,89.3877774 155.649242,90.1211685 155.360178,90.752031 C155.071114,91.3828936 154.658032,91.8672637 154.12092,92.205156 C153.583808,92.5430483 152.96565,92.711992 152.266428,92.711992 C151.575018,92.711992 150.958813,92.5430483 150.417795,92.205156 C149.876777,91.8672637 149.458812,91.3858232 149.163889,90.7608201 C148.868965,90.135817 148.719553,89.415121 148.715647,88.5987107 L148.715647,88.118242 C148.715647,87.2862066 148.863106,86.5518389 149.158029,85.915117 C149.452953,85.278395 149.868964,84.7910952 150.406076,84.4532029 C150.943188,84.1153106 151.559393,83.946367 152.254709,83.946367 C152.950025,83.946367 153.56623,84.1133575 154.103342,84.4473435 C154.640454,84.7813296 155.055489,85.2617935 155.348459,85.8887498 C155.641429,86.515706 155.789865,87.2451909 155.793772,88.0772263 L155.793772,88.5518357 Z M154.31135,88.1065232 C154.31135,87.161206 154.132641,86.4366039 153.775217,85.9326951 C153.417793,85.4287863 152.910962,85.1768357 152.254709,85.1768357 C151.614081,85.1768357 151.113109,85.4278098 150.751779,85.9297654 C150.39045,86.431721 150.205881,87.1416749 150.198069,88.0596482 L150.198069,88.5518357 C150.198069,89.4893404 150.380684,90.2139425 150.74592,90.7256638 C151.111156,91.2373852 151.617987,91.493242 152.266428,91.493242 C152.922681,91.493242 153.427559,91.2432445 153.781076,90.743242 C154.134594,90.2432395 154.31135,89.512778 154.31135,88.5518357 L154.31135,88.1065232 Z M169.806137,94.6924607 L168.399887,94.6924607 L168.399887,92.5948045 L162.780746,92.5948045 L162.780746,94.6924607 L161.351059,94.6924607 L161.304184,91.4112107 L161.98973,91.4112107 C162.329576,91.0830841 162.601057,90.6055498 162.804184,89.9785935 C163.00731,89.3516373 163.138168,88.6416834 163.196762,87.8487107 L163.419418,84.0635545 L168.798324,84.0635545 L168.798324,91.4112107 L169.882309,91.4112107 L169.806137,94.6924607 Z M163.665512,91.4112107 L167.321762,91.4112107 L167.321762,85.258867 L164.831527,85.258867 L164.690902,87.6612107 C164.585433,89.2666875 164.24364,90.516675 163.665512,91.4112107 Z M178.514468,88.5518357 C178.514468,89.3877774 178.369938,90.1211685 178.080874,90.752031 C177.79181,91.3828936 177.378728,91.8672637 176.841616,92.205156 C176.304504,92.5430483 175.686346,92.711992 174.987124,92.711992 C174.295714,92.711992 173.679509,92.5430483 173.138491,92.205156 C172.597473,91.8672637 172.179508,91.3858232 171.884585,90.7608201 C171.589661,90.135817 171.440249,89.415121 171.436343,88.5987107 L171.436343,88.118242 C171.436343,87.2862066 171.583802,86.5518389 171.878725,85.915117 C172.173649,85.278395 172.58966,84.7910952 173.126772,84.4532029 C173.663884,84.1153106 174.280089,83.946367 174.975405,83.946367 C175.670721,83.946367 176.286926,84.1133575 176.824038,84.4473435 C177.36115,84.7813296 177.776185,85.2617935 178.069155,85.8887498 C178.362125,86.515706 178.510561,87.2451909 178.514468,88.0772263 L178.514468,88.5518357 Z M177.032046,88.1065232 C177.032046,87.161206 176.853337,86.4366039 176.495913,85.9326951 C176.138489,85.4287863 175.631658,85.1768357 174.975405,85.1768357 C174.334777,85.1768357 173.833805,85.4278098 173.472475,85.9297654 C173.111145,86.431721 172.926577,87.1416749 172.918764,88.0596482 L172.918764,88.5518357 C172.918764,89.4893404 173.10138,90.2139425 173.466616,90.7256638 C173.831852,91.2373852 174.338683,91.493242 174.987124,91.493242 C175.643377,91.493242 176.148255,91.2432445 176.501772,90.743242 C176.85529,90.2432395 177.032046,89.512778 177.032046,88.5518357 L177.032046,88.1065232 Z M182.763814,84.0635545 L185.224752,90.602617 L187.67983,84.0635545 L189.595845,84.0635545 L189.595845,92.5948045 L188.119283,92.5948045 L188.119283,89.7823045 L188.265767,86.0205857 L185.746236,92.5948045 L184.685689,92.5948045 L182.172017,86.0264451 L182.318502,89.7823045 L182.318502,92.5948045 L180.841939,92.5948045 L180.841939,84.0635545 L182.763814,84.0635545 Z M197.079567,90.6084763 L193.774879,90.6084763 L193.083473,92.5948045 L191.542458,92.5948045 L194.765114,84.0635545 L196.095192,84.0635545 L199.323708,92.5948045 L197.776833,92.5948045 L197.079567,90.6084763 Z M194.190895,89.4131638 L196.663551,89.4131638 L195.427223,85.8741013 L194.190895,89.4131638 Z" id="СПОКОЙСТВИЕ-ВАШЕГО-Д" fill="#354F59"></path> </g> </g> </g> </g> </g> </svg> 